<svg xmlns="http://www.w3.org/2000/svg" viewBox="0 0 2500 2500" version="1.1">
	<path d="M 466.575 6.094 C 422.039 9.100, 381.435 21.192, 338.578 44.211 C 297.699 66.167, 268.300 90.077, 242.930 122 C 207.061 167.135, 186.456 217.282, 179.860 275.500 C 177.862 293.135, 177.825 2216.139, 179.822 2232 C 186.480 2284.861, 200.929 2324.159, 229.223 2366.358 C 256.369 2406.844, 290.306 2436.882, 337.906 2462.555 C 370.963 2480.384, 396.912 2489.751, 434 2497.244 C 443.419 2499.147, 448.659 2499.405, 484.914 2499.754 C 522.570 2500.116, 526.256 2499.995, 538.914 2497.983 C 570.479 2492.964, 601.831 2482.682, 630.500 2467.947 C 636.550 2464.837, 988.900 2247.425, 1413.500 1984.808 C 1838.100 1722.191, 2189.100 1505.355, 2193.500 1502.950 C 2241.501 1476.716, 2277.750 1441.462, 2305.864 1393.671 C 2321.997 1366.245, 2333.111 1336.393, 2339.542 1303.216 C 2345.446 1272.756, 2345.446 1227.244, 2339.542 1196.784 C 2330.400 1149.621, 2311.340 1108.256, 2281.121 1070 C 2271.786 1058.182, 2248.307 1034.563, 2237 1025.616 C 2225.742 1016.708, 2208.949 1005.581, 2196 998.450 C 2190.225 995.269, 1838.775 779.781, 1415 519.587 C 798 140.755, 640.909 44.713, 626.474 37.503 C 576.684 12.635, 523.744 2.236, 466.575 6.094 M 471.500 185.075 C 462.105 186.363, 447.806 190.324, 438.836 194.123 C 394.707 212.816, 370.004 239.928, 359.679 281 L 357.542 289.500 357.236 1246.500 C 357.032 1884.443, 357.266 2206.667, 357.938 2213 C 360.687 2238.925, 370.935 2261.237, 388.700 2279.977 C 399.342 2291.202, 407.564 2297.172, 425 2306.332 C 448.843 2318.859, 469.867 2323.764, 495 2322.663 C 514.873 2321.792, 530.340 2317.899, 547 2309.572 C 551.675 2307.236, 902 2090.985, 1325.500 1829.016 C 1749 1567.046, 2099.978 1350.257, 2105.451 1347.263 C 2118.626 1340.056, 2122.934 1337.007, 2131.671 1328.707 C 2153.661 1307.819, 2165.273 1280.620, 2165.273 1250 C 2165.273 1235.948, 2163.408 1224.970, 2158.930 1212.667 C 2149.550 1186.896, 2129.997 1165.077, 2105 1152.489 C 2101.975 1150.966, 1751.842 936.303, 1326.926 675.461 C 902.011 414.619, 551.011 199.518, 546.926 197.460 C 530.178 189.018, 513.765 185.077, 493 184.511 C 485.025 184.294, 475.350 184.548, 471.500 185.075" stroke="none" fill="#bebebe" fill-rule="evenodd"></path>
</svg>