<svg xmlns="http://www.w3.org/2000/svg" viewBox="0 0 2500 2500" version="1.1">
	<path d="M 73.342 599.411 C 55.467 602.825, 41.629 609.868, 28.301 622.335 C 16.099 633.749, 6.129 650.351, 2.314 665.608 C -0.094 675.236, -0.085 699.780, 2.329 709.500 C 4.619 718.721, 11.597 732.908, 17.822 741 C 20.572 744.575, 274.075 998.642, 581.161 1305.593 C 1109.263 1833.462, 1140.069 1864.064, 1150 1870.686 C 1164.161 1880.129, 1171.477 1884.074, 1184.500 1889.293 C 1205.863 1897.852, 1227.106 1901.961, 1250 1901.961 C 1285.530 1901.961, 1317.517 1892.163, 1348.181 1871.886 L 1360.500 1863.740 1918.826 1305.620 C 2225.906 998.654, 2479.079 745.025, 2481.434 742 C 2489.927 731.089, 2495.802 718.439, 2497.954 706.427 C 2498.636 702.617, 2499.601 698.719, 2500.097 697.764 C 2501.366 695.323, 2501.277 675.711, 2500 676.500 C 2499.426 676.854, 2498.985 675.920, 2498.964 674.309 C 2498.945 672.764, 2498.314 669.025, 2497.562 666 C 2489.771 634.644, 2464.975 609.434, 2433.500 600.869 C 2422.057 597.755, 2399.933 597.669, 2388.492 600.694 C 2378.248 603.402, 2370.616 606.797, 2361.652 612.633 C 2355.980 616.325, 2240.242 731.517, 1802.250 1169.390 L 1250 1721.492 697.750 1169.390 C 119.018 590.814, 140.703 612.181, 125.368 605.399 C 111.128 599.102, 88.562 596.504, 73.342 599.411 M 0.374 687.500 C 0.376 693.550, 0.541 695.896, 0.740 692.713 C 0.939 689.531, 0.937 684.581, 0.736 681.713 C 0.535 678.846, 0.372 681.450, 0.374 687.500" stroke="none" fill="#323232" fill-rule="evenodd"></path>
</svg>