<svg xmlns="http://www.w3.org/2000/svg" viewBox="0 0 2500 2500" version="1.1">
	<path d="M 871.934 179.144 C 739.290 183.934, 611.649 245.129, 523.212 346.334 C 493.241 380.631, 470.182 415.504, 450.539 456.238 C 417.766 524.202, 402.015 593.435, 402.023 669.500 C 402.027 712.860, 406.698 750.965, 416.936 791.184 C 431.531 848.510, 458.168 906.049, 492.312 954 C 528.022 1004.150, 575.689 1049.656, 627.278 1082.848 C 730.781 1149.439, 856.042 1174.624, 978 1153.363 C 1066.346 1137.961, 1148.756 1098.433, 1216.533 1038.949 C 1352.293 919.801, 1411.375 738.031, 1371.885 561 C 1352.245 472.956, 1307.894 391.781, 1243.570 326.143 C 1194.339 275.908, 1137.626 238.195, 1073 212.719 C 1008.539 187.308, 944.053 176.540, 871.934 179.144 M 1597.806 179.074 C 1567.515 181.693, 1540.243 200.930, 1526.535 229.347 C 1519.619 243.685, 1518.558 248.841, 1518.586 268 C 1518.608 283.119, 1518.840 285.253, 1521.363 293.500 C 1530.115 322.112, 1553.321 345.273, 1581.500 353.517 C 1588.913 355.686, 1593.763 356.310, 1609 357.053 C 1619.175 357.549, 1632.450 358.433, 1638.500 359.016 C 1745.593 369.344, 1841.191 436.170, 1888.107 533.500 C 1904.574 567.662, 1914.214 601.707, 1917.978 639 C 1919.335 652.447, 1919.344 686.421, 1917.993 700 C 1907.171 808.830, 1839.878 904.819, 1741.717 951.449 C 1700.904 970.836, 1662.688 979.875, 1612.720 981.959 C 1589.351 982.933, 1580.427 984.750, 1567.703 991.127 C 1550.100 999.949, 1532.922 1017.623, 1525.383 1034.668 C 1519.857 1047.164, 1518.529 1054.322, 1518.548 1071.500 C 1518.573 1093.335, 1521.651 1104.129, 1532.541 1120.568 C 1547.987 1143.887, 1572.647 1158.366, 1600.558 1160.505 C 1618.984 1161.917, 1666.260 1158.149, 1694.567 1153.012 C 1811.313 1131.828, 1914.940 1070.105, 1990.237 976.903 C 2030.603 926.939, 2061.958 866.327, 2079.514 804.323 C 2092.205 759.499, 2097.961 717.788, 2097.987 670.450 C 2098.031 591.199, 2081.090 519.221, 2045.749 448.500 C 2037.004 430.999, 2029.213 417.697, 2016.317 398.248 C 1946.426 292.837, 1838.304 218.188, 1715.500 190.559 C 1686.793 184.101, 1658.949 180.361, 1633 179.477 C 1624.475 179.187, 1615.025 178.808, 1612 178.635 C 1608.975 178.463, 1602.588 178.660, 1597.806 179.074 M 878 357.605 C 829.623 360.796, 791.851 370.892, 751 391.551 C 699.527 417.581, 655.164 458.851, 625.284 508.500 C 601.557 547.925, 586.688 592.778, 582.022 639 C 580.665 652.447, 580.656 686.421, 582.007 700 C 587.028 750.494, 604.835 800.547, 632.580 842.156 C 665.133 890.976, 709.672 929.088, 762.703 953.502 C 805.822 973.354, 853.964 983.120, 901.500 981.658 C 954.076 980.042, 1000.302 967.311, 1045.679 941.949 C 1135.902 891.524, 1195.389 798.908, 1204.099 695.305 C 1205.501 678.629, 1204.699 644.063, 1202.555 628.732 C 1194.568 571.641, 1172.444 519.571, 1137.301 475.159 C 1127.137 462.315, 1100.050 435.279, 1087.102 425.056 C 1041.438 389.001, 986.536 366.131, 929.936 359.587 C 917.039 358.096, 887.595 356.972, 878 357.605 M 852 1340.066 C 728.884 1345.751, 612.030 1375.533, 501.500 1429.397 C 413.697 1472.186, 338.220 1525.628, 267.617 1594.999 C 193.752 1667.576, 137.809 1744.541, 92.802 1835.500 C 42.900 1936.354, 13.564 2039.907, 3.551 2150.549 C 0.409 2185.268, -0.147 2213.751, 0.220 2321 C 0.560 2420.085, 0.711 2427.918, 2.387 2433.500 C 7 2448.861, 14.128 2461.169, 24.880 2472.343 C 36.457 2484.375, 50.171 2492.739, 65.702 2497.240 L 73.500 2499.500 892 2499.500 C 1573.721 2499.500, 1711.419 2499.276, 1716 2498.157 C 1746.225 2490.775, 1771.302 2468.519, 1781.038 2440.434 C 1785.812 2426.663, 1785.989 2422.182, 1785.972 2315.500 C 1785.953 2196.232, 1785.204 2174.552, 1779.395 2125.069 C 1742.467 1810.530, 1536.735 1535.960, 1244.500 1411.201 C 1119.541 1357.855, 986.998 1333.833, 852 1340.066 M 1876 1374.553 C 1862.702 1377.404, 1851.113 1382.563, 1839.344 1390.869 C 1815.152 1407.944, 1800.103 1442.447, 1803.907 1472.115 C 1807.069 1496.770, 1819.743 1519.360, 1838.196 1533.233 C 1847.256 1540.043, 1850.779 1541.819, 1874.500 1551.533 C 1919.842 1570.102, 1959.466 1590.725, 1997.500 1615.551 C 2098.811 1681.681, 2182.893 1774.121, 2238.936 1880.987 C 2281.689 1962.512, 2308.179 2050.112, 2317.412 2140.500 C 2320.419 2169.937, 2321 2188.346, 2321 2254.186 L 2321 2320.907 2225.250 2321.282 C 2122.178 2321.685, 2125.332 2321.530, 2110.929 2326.930 C 2089.639 2334.913, 2068.435 2355.819, 2059.616 2377.523 C 2052.005 2396.253, 2051.877 2424.514, 2059.320 2442.940 C 2069.711 2468.667, 2091.146 2488.470, 2117.500 2496.692 L 2126.500 2499.500 2276.500 2499.500 L 2426.500 2499.500 2434.298 2497.240 C 2464.138 2488.591, 2487.931 2464.985, 2497.203 2434.829 L 2499.456 2427.500 2499.809 2311.500 C 2500.177 2190.662, 2499.709 2168.556, 2495.943 2128.856 C 2478.761 1947.718, 2407.116 1777.448, 2288.983 1637 C 2262.827 1605.904, 2226.805 1569.226, 2196 1542.327 C 2119.424 1475.460, 2031.381 1421.331, 1940.431 1385.203 C 1922.606 1378.122, 1914.524 1375.461, 1906.566 1374.051 C 1898.496 1372.622, 1883.888 1372.861, 1876 1374.553 M 865.500 1518.583 C 828.926 1520.400, 797.367 1523.777, 767.500 1529.073 C 653.690 1549.251, 544.745 1597.821, 454 1668.839 C 431.067 1686.786, 412.442 1703.433, 388.438 1727.438 C 364.193 1751.682, 347.610 1770.242, 329.410 1793.500 C 251.784 1892.701, 201.042 2013.861, 184.926 2138.500 C 180.210 2174.972, 179.775 2183.872, 179.294 2253.750 L 178.831 2321 893.034 2321 L 1607.237 2321 1606.704 2256.250 C 1606.150 2189.115, 1605.429 2174.358, 1601.024 2140 C 1589.054 2046.655, 1557.783 1955.104, 1509.312 1871.500 C 1449.798 1768.848, 1356.184 1675.234, 1253.500 1615.689 C 1159.563 1561.216, 1057.318 1529.025, 951 1520.449 C 933.954 1519.074, 879.533 1517.886, 865.500 1518.583" stroke="none" fill="#bebebe" fill-rule="evenodd"></path>
</svg>